# xmcd
#
# Track frame offsets:
#	150
#	10719
#	20655
#	31242
#	42889
#	54019
#	66985
#	85002
#	97239
#	108903
#	118094
#	131816
#	143187
#	153527
#	165920
#
# Disc length: 2352 seconds
#
# Revision: 1
# Processed by: cddbd v1.5.2PL0 Copyright (c) Steve Scherf et al.
# Submitted via: EZCDAudioConverter 1.3.4.1
#
DISCID=be092e0f
DTITLE=Brian Capps - Classic Country
DYEAR=1900
DGENRE=
TTITLE0=White Sport Coat
TTITLE1=Brian Capps - Waltz Across Texas
TTITLE2=Brian Capps - Hello Mary Lou
TTITLE3=Brian Capps - Fool Such As I
TTITLE4=Brian Capps - Sea of Heartbreak
TTITLE5=Brian Capps - I Walk the Line
TTITLE6=Brian Capps - Lonesome Town
TTITLE7=Brian Capps - Detroit City
TTITLE8=Brian Capps - Wabash Cannon Ball
TTITLE9=Brian Capps - Country Boy
TTITLE10=Brian Capps - Skip A Rope
TTITLE11=Brian Capps - My Bucket’s Got a Hole In It
TTITLE12=Brian Capps - Philadelphia Lawyer
TTITLE13=Brian Capps - Folsom Prison Blues
TTITLE14=Brian Capps - Wings Of A Dove
EXTD=
EXTT0=
EXTT1=
EXTT2=
EXTT3=
EXTT4=
EXTT5=
EXTT6=
EXTT7=
EXTT8=
EXTT9=
EXTT10=
EXTT11=
EXTT12=
EXTT13=
EXTT14=
PLAYORDER=
